<svg width="995" height="768" viewBox="0 0 995 768" fill="none" xmlns="http://www.w3.org/2000/svg">
<g filter="url(#filter0_f_1_1226)">
<mask id="mask0_1_1226" style="mask-type:alpha" maskUnits="userSpaceOnUse" x="100" y="10" width="795" height="658">
<path d="M789.291 475.81C790.399 472.263 790.554 468.513 789.739 464.942C788.924 461.371 787.169 458.107 784.653 455.484L598.28 261.215L885.674 48.0487C889.437 45.1093 892.137 41.0186 893.338 36.435C894.539 31.8515 894.172 27.0419 892.296 22.7806C890.42 18.5192 887.144 15.0542 882.995 12.9434C878.846 10.8326 874.067 10.1988 869.425 11.144L216.74 183.61C213.102 184.448 209.725 186.233 206.958 188.783C204.191 191.332 202.134 194.553 200.999 198.114C199.863 201.674 199.691 205.446 200.5 209.039C201.308 212.632 203.069 215.917 205.599 218.555L389.186 409.922L107.891 630.216C104.232 633.24 101.655 637.37 100.57 641.951C99.486 646.531 99.957 651.298 101.908 655.493C103.859 659.688 107.178 663.07 111.336 665.101C115.495 667.132 120.255 667.695 124.859 666.701L773.753 490.375C777.362 489.5 780.701 487.691 783.431 485.132C786.161 482.574 788.183 479.357 789.291 475.81Z" fill="black"/>
</mask>
<g mask="url(#mask0_1_1226)">
<g filter="url(#filter1_f_1_1226)">
<path d="M350.667 198.522L491.374 248.33C367.083 559.822 408.961 863.81 584.737 926.032L485.243 1175.38C231.899 1085.7 171.527 647.475 350.667 198.522Z" fill="url(#paint0_linear_1_1226)"/>
<path d="M424.02 224.489L542.286 266.353C437.843 528.104 473.043 783.613 620.748 835.899L537.123 1045.48C324.187 970.102 273.478 601.77 424.02 224.489Z" fill="url(#paint1_linear_1_1226)"/>
<path d="M290.949 348.295L431.656 398.103C555.947 86.611 800.027 -116.152 975.798 -53.93L1075.3 -303.277C821.952 -392.957 470.089 -100.658 290.949 348.295Z" fill="url(#paint2_linear_1_1226)"/>
<path d="M131.098 379.752L271.804 429.56C396.095 118.068 640.176 -84.6946 815.951 -22.473L915.445 -271.82C662.101 -361.5 310.238 -69.2007 131.098 379.752Z" fill="url(#paint3_linear_1_1226)"/>
</g>
<g filter="url(#filter2_f_1_1226)">
<path d="M467.072 289.489L525.836 310.291C473.928 440.38 491.418 567.335 564.828 593.321L523.276 697.457C417.471 660.004 392.258 476.987 467.072 289.489Z" fill="url(#paint4_linear_1_1226)"/>
<path d="M857.469 393.757L846.593 493.982C628.965 481.383 440.844 572.977 427.26 698.151L253.009 688.063C272.592 507.61 543.785 375.597 857.469 393.757Z" fill="url(#paint5_linear_1_1226)"/>
<path d="M888.711 284.659L877.835 384.884C660.207 372.285 472.086 463.879 458.502 589.053L284.251 578.965C303.834 398.512 575.027 266.5 888.711 284.659Z" fill="url(#paint6_linear_1_1226)"/>
<path d="M583.245 454.987L572.368 555.212C354.74 542.613 166.619 634.208 153.035 759.381L-21.2158 749.293C-1.63292 568.841 269.561 436.828 583.245 454.987Z" fill="url(#paint7_linear_1_1226)"/>
<path d="M442.128 352.04L500.891 372.841C552.799 242.752 654.735 158.072 728.145 184.057L769.697 79.9219C663.892 42.4686 516.942 164.542 442.128 352.04Z" fill="url(#paint8_linear_1_1226)"/>
<path d="M582.673 285.274L641.436 306.076C693.344 175.986 795.28 91.306 868.69 117.292L910.242 13.1562C804.437 -24.2971 657.487 97.7768 582.673 285.274Z" fill="url(#paint9_linear_1_1226)"/>
</g>
</g>
</g>
<defs>
<filter id="filter0_f_1_1226" x="0" y="-89.2831" width="994.031" height="856.463" filterUnits="userSpaceOnUse" color-interpolation-filters="sRGB">
<feFlood flood-opacity="0" result="BackgroundImageFix"/>
<feBlend mode="normal" in="SourceGraphic" in2="BackgroundImageFix" result="shape"/>
<feGaussianBlur stdDeviation="50" result="effect1_foregroundBlur_1_1226"/>
</filter>
<filter id="filter1_f_1_1226" x="-25.9407" y="-476.492" width="1258.28" height="1808.91" filterUnits="userSpaceOnUse" color-interpolation-filters="sRGB">
<feFlood flood-opacity="0" result="BackgroundImageFix"/>
<feBlend mode="normal" in="SourceGraphic" in2="BackgroundImageFix" result="shape"/>
<feGaussianBlur stdDeviation="78.5193" result="effect1_foregroundBlur_1_1226"/>
</filter>
<filter id="filter2_f_1_1226" x="-99.7352" y="-72.1188" width="1088.5" height="910.019" filterUnits="userSpaceOnUse" color-interpolation-filters="sRGB">
<feFlood flood-opacity="0" result="BackgroundImageFix"/>
<feBlend mode="normal" in="SourceGraphic" in2="BackgroundImageFix" result="shape"/>
<feGaussianBlur stdDeviation="39.2597" result="effect1_foregroundBlur_1_1226"/>
</filter>
<linearGradient id="paint0_linear_1_1226" x1="580.415" y1="279.839" x2="288.106" y2="1105.61" gradientUnits="userSpaceOnUse">
<stop stop-color="#9403FD"/>
<stop offset="1" stop-color="#00ADFE"/>
</linearGradient>
<linearGradient id="paint1_linear_1_1226" x1="617.087" y1="292.821" x2="371.432" y2="986.794" gradientUnits="userSpaceOnUse">
<stop stop-color="#9403FD"/>
<stop offset="1" stop-color="#00ADFE"/>
</linearGradient>
<linearGradient id="paint2_linear_1_1226" x1="520.694" y1="429.634" x2="813.003" y2="-396.135" gradientUnits="userSpaceOnUse">
<stop stop-color="#FF12DC"/>
<stop offset="1" stop-color="#FFB912"/>
</linearGradient>
<linearGradient id="paint3_linear_1_1226" x1="360.842" y1="461.091" x2="653.151" y2="-364.678" gradientUnits="userSpaceOnUse">
<stop stop-color="#FF12DC"/>
<stop offset="1" stop-color="#FFB912"/>
</linearGradient>
<linearGradient id="paint4_linear_1_1226" x1="563.023" y1="323.45" x2="440.945" y2="668.319" gradientUnits="userSpaceOnUse">
<stop stop-color="#9403FD"/>
<stop offset="1" stop-color="#00ADFE"/>
</linearGradient>
<linearGradient id="paint5_linear_1_1226" x1="839.721" y1="557.369" x2="273.879" y2="495.964" gradientUnits="userSpaceOnUse">
<stop stop-color="#9403FD"/>
<stop offset="1" stop-color="#00ADFE"/>
</linearGradient>
<linearGradient id="paint6_linear_1_1226" x1="870.964" y1="448.272" x2="305.121" y2="386.866" gradientUnits="userSpaceOnUse">
<stop stop-color="#9403FD"/>
<stop offset="1" stop-color="#00ADFE"/>
</linearGradient>
<linearGradient id="paint7_linear_1_1226" x1="565.497" y1="618.6" x2="-0.345492" y2="557.194" gradientUnits="userSpaceOnUse">
<stop stop-color="#9403FD"/>
<stop offset="1" stop-color="#00ADFE"/>
</linearGradient>
<linearGradient id="paint8_linear_1_1226" x1="538.077" y1="386.009" x2="660.154" y2="41.1416" gradientUnits="userSpaceOnUse">
<stop stop-color="#FF12DC"/>
<stop offset="1" stop-color="#FFB912"/>
</linearGradient>
<linearGradient id="paint9_linear_1_1226" x1="678.622" y1="319.244" x2="800.699" y2="-25.6241" gradientUnits="userSpaceOnUse">
<stop stop-color="#FF12DC"/>
<stop offset="1" stop-color="#FFB912"/>
</linearGradient>
</defs>
</svg>
